<?xml version="1.0" encoding="utf-8"?>
<!-- Svg Vector Icons : http://www.onlinewebfonts.com/icon -->
<!DOCTYPE svg PUBLIC "-//W3C//DTD SVG 1.1//EN" "http://www.w3.org/Graphics/SVG/1.1/DTD/svg11.dtd">
<svg version="1.1" xmlns="http://www.w3.org/2000/svg" xmlns:xlink="http://www.w3.org/1999/xlink" x="0px" y="0px" viewBox="0 0 1000 1000" enable-background="new 0 0 1000 1000" xml:space="preserve">
<metadata> Svg Vector Icons : http://www.onlinewebfonts.com/icon </metadata>
<g><path d="M989.8,466.1c-0.1-1.6-0.7-3.1-1-4.7c-1.4-7.8-5.3-14.4-11.3-19L521.6,56.7c-1.1-0.9-2.4-1.2-3.5-1.9c-1.8-1.3-3.6-2.3-5.7-3.1c-2-0.9-3.9-1.3-5.9-1.6c-2.1-0.5-4.1-0.8-6.1-0.8c-2.1,0-4.1,0.3-6.1,0.7c-2.1,0.4-4,0.8-6,1.6c-2,0.8-3.8,1.8-5.6,3c-1.2,0.8-2.5,1.1-3.6,1.9L25.4,440.4c-9,5.8-15.4,15.3-15.4,26.7c0,17.8,14.7,32.3,32.7,32.3h104.5v419.1c0,17.8,14.7,32.3,32.7,32.3h241.3V715.2h177.2v235.5h221.7c18,0,32.7-14.4,32.7-32.2V499.3h100.9c1.2,0.1,2.4,0.6,3.7,0.6c9.2,0,18.4-3.8,24.8-11.3c1.9-2.3,3.1-5,4.3-7.6c0.3-0.7,0.8-1.2,1.1-1.9c1.1-2.8,1.5-5.7,1.8-8.6c0.1-1.2,0.7-2.2,0.7-3.4C990,466.8,989.8,466.4,989.8,466.1L989.8,466.1L989.8,466.1z M793.8,440.4v451.3H656.4V689.3c0-17.8-14.6-32.3-32.6-32.3H395.5c-18,0-32.7,14.4-32.7,32.3v202.3H205.6V440.4h-78l372.9-316.7l372.7,316.7H793.8L793.8,440.4z"/></g>
</svg>